<?xml version="1.0" encoding="UTF-8"?>
<svg id="Layer_1" data-name="Layer 1" xmlns="http://www.w3.org/2000/svg" xmlns:xlink="http://www.w3.org/1999/xlink" viewBox="0 0 1794.73 449.19">
  <defs>
    <style>
      .cls-1 {
        fill: none;
      }

      .cls-2 {
        clip-path: url(#clippath-1);
      }

      .cls-3 {
        fill: #93c9bf;
      }

      .cls-4 {
        clip-path: url(#clippath-3);
      }

      .cls-5 {
        fill: #fffbea;
      }

      .cls-6 {
        clip-path: url(#clippath-2);
      }

      .cls-7 {
        clip-path: url(#clippath);
      }
    </style>
    <clipPath id="clippath">
      <rect class="cls-1" x="18.08" y="0" width="449.19" height="449.19"/>
    </clipPath>
    <clipPath id="clippath-1">
      <rect class="cls-1" x="18.08" y="0" width="449.19" height="449.19"/>
    </clipPath>
    <clipPath id="clippath-2">
      <rect class="cls-1" x="18.08" y="0" width="449.19" height="449.19"/>
    </clipPath>
    <clipPath id="clippath-3">
      <rect class="cls-1" x="18.08" y="0" width="449.19" height="449.19"/>
    </clipPath>
  </defs>
  <g class="cls-7">
    <g class="cls-2">
      <path class="cls-3" d="M327.72,395.82c-7.21,1.05-12.17-2.46-15.81-7.63-13.75-19.55-30.14-43.84-51.45-55.62-22.5-12.45-39.52-30.26-50.25-53.87-11.17-24.57-16.26-51.29-14.47-78.4.6-9,6.98-14.88,15.31-15.21,7.73-.31,15.76,5.42,16.03,14.2.45,14.58,6.15,27.82,17.68,36.67,14.13,10.84,32.37,10.81,46.08-.93,20.62-17.66,28.1-43.77,49.27-68.34,18.13-21.05,43.7-28.24,69.85-17.53,13.4,5.49,22.98,14.3,30.58,26.6,17.43,28.22,13.68,64.97-9.83,88.77-4.62,4.67-9.8,7.73-15.13,11.75-8.53,44.51-41.37,65.61-85.09,68.81-1.72,7.79,7.47,28.95,10.98,37.29,3.43,8.14-8.49,12.67-13.75,13.44M316.53,313.89c18.92,1.1,46.61-5.15,58.17-20.61,15.45-20.67,4.35-32.88,19.9-41.06,9.88-5.2,18.09-13.1,22.12-23.47,7.42-19.08.48-39.89-17.24-49.81-11.62-6.49-24.58-3.45-33.55,6.27-13.72,14.87-23.89,39.83-41.82,61.21-21,25.04-48.92,35.82-81.89,24.23,13.08,29.29,44.21,41.5,74.32,43.25"/>
    </g>
    <g class="cls-6">
      <path class="cls-5" d="M205.05,161.31c-33.03,16.9-39.41,87.05-83.63,105.21-18.9,7.76-39.9,5.08-56.98-6.43-23.22-15.65-33.9-43.96-29.52-71.5,4.99-31.33,20.06-58.09,42.32-80.35,27.35-27.35,75.18-47.12,113.85-46.71,26.27.28,50.77,9.39,69.24,27.88,10.14,10.16,17,22.32,22.21,35.67,9.82,25.19,11.48,51.77,8.02,78.45-1.2,9.24-6.99,15.55-16.14,15.68-8.15.13-15.86-6.23-15.81-15.6.08-14.67-5.3-28.99-17.26-37.9-10.64-7.93-24.39-10.52-36.31-4.42M143.64,189.25c6.7-12.61,13.57-24.39,22.1-35.51,20.64-26.88,55.76-35.32,86.37-18.72-8.41-23.73-29.43-39.15-53.81-41.65-13-1.33-25.44.69-38.04,3.99-35.38,9.92-63.81,28.56-81.74,61.11-12.36,22.45-20.7,53.6.81,72.84,9.83,8.79,23.28,10.64,34.17,3.41,13.16-8.74,22.51-31.44,30.15-45.48"/>
      <path class="cls-5" d="M370.94,131.89c-24.4-27.61-58.31-43.59-95.02-46.74l-10.65-9.84c-8.41-8.35-18.05-14.01-29.26-18.96,52.04-11.11,110.27,7.78,148.3,43.69,2.16.45,3.3,1.62,3.83,3.59,9.2,9.15,17.31,18.64,24.27,30.83-13.37-3.82-26.75-5.62-41.47-2.57"/>
    </g>
    <g class="cls-4">
      <path class="cls-3" d="M223.27,321.72c-8.12,3.38-16.34,3.05-24.83,3.15-30.99.39-59.59-15.22-70.37-45.17,10.02-5.43,18.14-11.38,26.1-19,9.53,24.78,21.25,32.43,48.12,32.53,5.27,10.35,12.34,18.79,20.98,28.48"/>
    </g>
  </g>
  <g>
    <path class="cls-5" d="M525.37,306.31v-139.61h34.72l3.11,18.28c4.52-6.65,10.54-11.91,18.07-15.79,7.52-3.88,15.99-5.82,25.4-5.82,7.15,0,13.59.88,19.34,2.63,5.74,1.76,10.77,4.39,15.1,7.89,4.33,3.51,7.9,7.85,10.73,13.02,5.27-7.2,12.14-12.92,20.61-17.17,8.47-4.25,17.78-6.37,27.94-6.37,12.23,0,22.58,2.45,31.05,7.34,8.47,4.9,14.77,12.01,18.91,21.33,4.14,9.33,6.21,20.73,6.21,34.21v80.05h-39.23v-76.45c0-10.89-2.17-19.25-6.49-25.07-4.33-5.82-10.92-8.73-19.76-8.73-6.02,0-11.34,1.43-15.95,4.29-4.61,2.86-8.19,6.97-10.73,12.33-2.54,5.36-3.81,11.82-3.81,19.39v74.24h-39.24v-76.45c0-10.89-2.21-19.25-6.63-25.07-4.42-5.82-11.25-8.73-20.46-8.73-5.65,0-10.68,1.43-15.1,4.29-4.42,2.86-7.9,6.97-10.44,12.33-2.54,5.36-3.81,11.82-3.81,19.39v74.24h-39.52Z"/>
    <path class="cls-5" d="M798.89,148.7c-7.15,0-12.98-2.08-17.5-6.23-4.52-4.15-6.77-9.28-6.77-15.37s2.26-11.45,6.77-15.51c4.52-4.06,10.35-6.09,17.5-6.09s12.98,2.03,17.5,6.09c4.52,4.06,6.77,9.24,6.77,15.51s-2.26,11.22-6.77,15.37-10.35,6.23-17.5,6.23ZM778.85,306.31v-139.61h39.52v139.61h-39.52Z"/>
    <path class="cls-5" d="M842.36,306.31v-139.61h34.72l2.82,22.71c4.52-7.94,10.73-14.27,18.63-18.97s17.4-7.06,28.51-7.06c11.86,0,21.83,2.45,29.92,7.34,8.09,4.9,14.3,11.96,18.63,21.19,4.33,9.24,6.49,20.59,6.49,34.07v80.33h-39.24v-76.73c0-10.71-2.4-18.97-7.2-24.79s-12.09-8.73-21.88-8.73c-6.03,0-11.48,1.43-16.37,4.29-4.89,2.86-8.71,6.92-11.43,12.19-2.73,5.26-4.09,11.68-4.09,19.25v74.51h-39.52Z"/>
    <path class="cls-5" d="M1066.47,309.63c-12.8,0-24.32-3.14-34.58-9.42-10.26-6.28-18.26-14.96-23.99-26.04-5.74-11.08-8.61-23.64-8.61-37.67s2.92-26.54,8.75-37.53c5.83-10.98,13.97-19.67,24.42-26.04,10.44-6.37,22.16-9.56,35.14-9.56,10.16,0,19,1.76,26.53,5.26,7.52,3.51,13.64,8.68,18.35,15.51v-77.28h39.52v199.44h-35.28l-4.23-19.11c-3.01,4.25-6.59,8.03-10.72,11.36-4.14,3.32-9.08,6-14.82,8.03-5.74,2.03-12.56,3.05-20.46,3.05ZM1076.35,275.84c7.52,0,14.06-1.66,19.62-4.99,5.55-3.32,9.83-7.94,12.84-13.85,3.01-5.91,4.52-12.74,4.52-20.5s-1.51-14.58-4.52-20.5c-3.01-5.91-7.34-10.53-12.98-13.85-5.65-3.32-12.14-4.99-19.48-4.99s-13.51,1.66-19.05,4.99c-5.55,3.32-9.88,7.99-12.98,13.99-3.11,6-4.66,12.7-4.66,20.08,0,7.94,1.55,14.87,4.66,20.77,3.1,5.91,7.43,10.53,12.98,13.85,5.55,3.32,11.9,4.99,19.05,4.99Z"/>
    <path class="cls-5" d="M1233.3,309.63c-13.37,0-24.8-2.08-34.3-6.23-9.5-4.16-16.98-9.79-22.44-16.9-5.46-7.11-8.57-15.19-9.31-24.24h39.23c.75,3.14,2.26,6.09,4.52,8.86,2.26,2.77,5.17,4.99,8.75,6.65,3.57,1.66,7.9,2.49,12.98,2.49s8.94-.69,12.14-2.08c3.2-1.38,5.55-3.19,7.06-5.4,1.5-2.22,2.26-4.61,2.26-7.2,0-3.69-1.13-6.51-3.39-8.45s-5.5-3.64-9.74-5.12c-4.23-1.48-9.46-2.67-15.67-3.6-6.59-1.48-13.17-3.14-19.76-4.99-6.59-1.84-12.47-4.29-17.64-7.34-5.18-3.05-9.27-6.88-12.28-11.5-3.01-4.61-4.52-10.34-4.52-17.17,0-8.12,2.26-15.55,6.77-22.3,4.52-6.74,11.24-12.05,20.18-15.93,8.94-3.88,19.43-5.82,31.47-5.82,17.5,0,31.23,3.79,41.21,11.36,9.97,7.57,15.9,18,17.78,31.3h-36.98c-1.13-4.25-3.58-7.48-7.34-9.69-3.77-2.22-8.75-3.32-14.96-3.32s-11.34,1.16-14.82,3.46c-3.48,2.31-5.22,5.22-5.22,8.73,0,2.59,1.13,4.8,3.39,6.65,2.26,1.85,5.5,3.51,9.74,4.99,4.23,1.48,9.36,2.87,15.38,4.16,11.29,2.22,21.07,4.76,29.36,7.62,8.28,2.87,14.77,6.93,19.48,12.19,4.7,5.26,7.06,12.88,7.06,22.85,0,9.05-2.45,17.04-7.34,23.96-4.9,6.92-11.86,12.33-20.89,16.2s-19.76,5.82-32.18,5.82Z"/>
    <path class="cls-5" d="M1322.49,367.25l34.44-76.45h-8.75l-56.74-124.09h42.9l39.8,88.08,35.28-88.08h42.34l-87.5,200.55h-41.78Z"/>
    <path class="cls-5" d="M1461.93,306.31v-139.61h34.72l2.82,22.71c4.52-7.94,10.72-14.27,18.63-18.97s17.4-7.06,28.51-7.06c11.85,0,21.83,2.45,29.92,7.34,8.09,4.9,14.3,11.96,18.63,21.19,4.33,9.24,6.49,20.59,6.49,34.07v80.33h-39.23v-76.73c0-10.71-2.4-18.97-7.2-24.79-4.8-5.82-12.09-8.73-21.88-8.73-6.03,0-11.48,1.43-16.37,4.29-4.9,2.86-8.71,6.92-11.43,12.19-2.73,5.26-4.09,11.68-4.09,19.25v74.51h-39.52Z"/>
    <path class="cls-5" d="M1692.26,309.63c-14.3,0-27.01-3.14-38.11-9.42-11.11-6.28-19.76-14.86-25.97-25.76-6.21-10.89-9.32-23.36-9.32-37.39s3.11-27.15,9.32-38.23c6.21-11.08,14.86-19.76,25.97-26.04,11.1-6.28,23.8-9.42,38.11-9.42,18.44,0,33.92,4.71,46.43,14.13,12.51,9.42,20.46,22.44,23.85,39.06h-41.78c-1.7-6.09-5.08-10.94-10.16-14.54-5.08-3.6-11.29-5.4-18.63-5.4-6.4,0-12.09,1.57-17.08,4.71-4.99,3.14-8.89,7.71-11.71,13.71-2.82,6-4.23,13.16-4.23,21.47,0,6.09.8,11.63,2.4,16.62,1.6,4.99,3.9,9.19,6.92,12.6,3.01,3.42,6.49,6.09,10.44,8.03,3.95,1.94,8.37,2.91,13.27,2.91s9.03-.83,12.98-2.49c3.95-1.66,7.29-4.02,10.02-7.06,2.72-3.05,4.66-6.6,5.79-10.66h41.78c-3.39,16.07-11.39,28.95-23.99,38.64-12.61,9.7-28.04,14.54-46.29,14.54Z"/>
  </g>
</svg>