<?xml version="1.0" encoding="UTF-8"?>
<svg id="Layer_1" data-name="Layer 1" xmlns="http://www.w3.org/2000/svg" viewBox="0 0 141.73 141.73">
  <defs>
    <style>
      .cls-1 {
        fill: #93c9bf;
      }

      .cls-2 {
        fill: #fffbea;
      }
    </style>
  </defs>
  <path class="cls-1" d="M97.7,124.89c-2.27.33-3.84-.78-4.99-2.41-4.34-6.17-9.51-13.83-16.23-17.55-7.1-3.93-12.47-9.55-15.86-17-3.53-7.75-5.13-16.19-4.57-24.74.19-2.84,2.2-4.69,4.83-4.8,2.44-.1,4.97,1.71,5.06,4.48.14,4.6,1.94,8.78,5.58,11.57,4.46,3.42,10.21,3.41,14.54-.29,6.51-5.57,8.87-13.81,15.54-21.56,5.72-6.64,13.79-8.91,22.04-5.53,4.23,1.73,7.25,4.51,9.65,8.39,5.5,8.91,4.31,20.5-3.1,28.01-1.46,1.47-3.09,2.44-4.77,3.71-2.69,14.04-13.05,20.7-26.85,21.71-.54,2.46,2.36,9.13,3.47,11.76s-2.68,4-4.34,4.24ZM94.17,99.04c5.97.35,14.71-1.63,18.35-6.5,4.87-6.52,1.37-10.38,6.28-12.96,3.12-1.64,5.71-4.13,6.98-7.41,2.34-6.02.15-12.59-5.44-15.71-3.67-2.05-7.76-1.09-10.59,1.98-4.33,4.69-7.54,12.57-13.19,19.31-6.63,7.9-15.44,11.3-25.84,7.65,4.13,9.24,13.95,13.09,23.45,13.65Z"/>
  <path class="cls-2" d="M58.99,50.9c-10.42,5.33-12.44,27.47-26.39,33.2-5.96,2.45-12.59,1.6-17.98-2.03-7.33-4.94-10.7-13.87-9.31-22.56,1.57-9.88,6.33-18.33,13.35-25.35,8.63-8.63,23.72-14.87,35.92-14.74,8.29.09,16.02,2.96,21.85,8.8,3.2,3.2,5.37,7.04,7.01,11.26,3.1,7.95,3.62,16.34,2.53,24.75-.38,2.92-2.21,4.9-5.09,4.95-2.57.04-5-1.97-4.99-4.92.02-4.63-1.67-9.15-5.44-11.96-3.36-2.5-7.7-3.32-11.46-1.39ZM39.62,59.71c2.11-3.98,4.28-7.7,6.97-11.2,6.51-8.48,17.6-11.14,27.25-5.91-2.65-7.49-9.29-12.35-16.98-13.14-4.1-.42-8.03.22-12,1.26-11.16,3.13-20.14,9.01-25.79,19.28-3.9,7.09-6.53,16.91.26,22.98,3.1,2.77,7.35,3.36,10.78,1.07,4.15-2.76,7.1-9.92,9.51-14.35Z"/>
  <path class="cls-2" d="M111.34,41.62c-7.7-8.71-18.4-13.75-29.98-14.75l-3.36-3.11c-2.65-2.64-5.7-4.42-9.23-5.98,16.42-3.51,34.79,2.45,46.79,13.79.68.14,1.04.51,1.21,1.13,2.9,2.89,5.46,5.88,7.66,9.73-4.22-1.2-8.44-1.77-13.08-.81Z"/>
  <path class="cls-1" d="M64.74,101.51c-2.56,1.06-5.16.96-7.83,1-9.78.12-18.8-4.8-22.2-14.25,3.16-1.71,5.73-3.59,8.24-5.99,3.01,7.82,6.7,10.23,15.18,10.27,1.66,3.27,3.89,5.93,6.62,8.99Z"/>
</svg>